<svg xmlns="http://www.w3.org/2000/svg" 
     shape-rendering="geometricPrecision" 
     text-rendering="geometricPrecision" 
     image-rendering="optimizeQuality" 
     fill="white"
     fill-rule="evenodd" 
     clip-rule="evenodd" 
     viewBox="0 0 512 468.554">
  <path fill-rule="nonzero" d="M97.632 0h36.135l-56.57 129.552H28.619v241.373c0 18.956 7.777 36.205 20.289 48.717 12.519 12.519 29.777 20.292 48.724 20.292h316.737c18.94 0 36.195-7.78 48.714-20.298 12.519-12.519 20.298-29.774 20.298-48.711V129.552H379.952l55.552-127.23c18.413 4.103 34.91 13.441 47.817 26.351C501.018 46.364 512 70.788 512 97.632v273.293c0 26.841-10.995 51.255-28.682 68.946-17.691 17.69-42.111 28.683-68.949 28.683H97.632c-26.844 0-51.268-10.986-68.959-28.677C10.989 422.193 0 397.785 0 370.925V97.632c0-26.867 10.983-51.281 28.667-68.965C46.351 10.983 70.765 0 97.632 0zM45.451 148.06v206.033c0 37.907 31.106 69.009 69.013 69.009h283.073c37.884 0 69.013-31.125 69.013-69.009V148.06H45.451zm295.243 159.367h-62.779v62.849h-43.823v-62.849h-62.785v-43.822h62.785v-62.721h43.823v62.721h62.779v43.822zM171.702 0h96.149l-56.57 129.552h-96.149L171.702 0zm133.63 0h93.252l-56.568 129.552h-93.258L305.332 0z"/>
</svg>