<!DOCTYPE svg PUBLIC "-//W3C//DTD SVG 1.1//EN" "http://www.w3.org/Graphics/SVG/1.1/DTD/svg11.dtd">

<!-- Uploaded to: SVG Repo, www.svgrepo.com, Transformed by: SVG Repo Mixer Tools -->
<svg height="800px" width="800px" version="1.1" id="Layer_1" xmlns="http://www.w3.org/2000/svg" xmlns:xlink="http://www.w3.org/1999/xlink" viewBox="0 0 451.277 451.277" xml:space="preserve" fill="#000000">

<g id="SVGRepo_bgCarrier" stroke-width="0"/>

<g id="SVGRepo_tracerCarrier" stroke-linecap="round" stroke-linejoin="round"/>

<g id="SVGRepo_iconCarrier"> <circle style="fill:#EFC84A;" cx="225.638" cy="225.638" r="225.638"/> <path style="opacity:0.1;enable-background:new ;" d="M440.467,294.764l-97.794-97.793l-0.235-0.235 c-8.791-9.778-21.531-15.937-35.729-15.937c-7.381,0-14.339,1.691-20.591,4.654c-7.146-2.257-14.95-1.175-21.202,3.055 c-5.5-2.398-13.68-5.171-23.882-6.347c-3.338-4.936-8.979-8.133-15.373-8.133c-6.441,0-12.082,3.197-15.42,8.133 c-10.202,1.175-18.382,3.949-23.835,6.347c-6.3-4.231-14.104-5.312-21.249-3.055c-6.253-2.963-13.21-4.654-20.591-4.654 c-26.609,0-48.187,21.625-48.187,48.234c0,10.437,3.338,20.168,9.026,28.066c3.056,4.325,6.864,8.133,11.189,11.188l173.59,173.59 C361.359,420.663,417.786,365.298,440.467,294.764z"/> <path style="fill:#64798A;" d="M207.01,192.637c0-3.888,1.197-7.494,3.235-10.48c-10.189,1.187-18.394,3.976-23.861,6.338 c2.152,1.443,4.168,3.148,5.841,5.31l15.233,19.673c3.651-1.805,7.3-3.057,10.504-3.907 C211.515,206.641,207.01,200.18,207.01,192.637z"/> <path style="fill:#2F4859;" d="M186.384,188.495c-6.262-4.196-14.069-5.314-21.229-3.028c16.332,7.725,27.658,24.305,27.658,43.572 c0,4.257-0.607,8.363-1.643,12.296l15.748-12.194c4.374-3.388,5.175-9.68,1.787-14.054l-1.247-1.61l-15.233-19.673 C190.551,191.643,188.536,189.937,186.384,188.495z"/> <path style="fill:#3A556A;" d="M165.155,185.467c-6.246-2.956-13.201-4.657-20.571-4.657c-26.636,0-48.229,21.593-48.229,48.229 s21.593,48.229,48.229,48.229c22.378,0,41.142-15.264,46.586-35.933c1.036-3.933,1.643-8.039,1.643-12.296 C192.813,209.772,181.487,193.193,165.155,185.467z M144.584,265.182c-19.961,0-36.143-16.182-36.143-36.143 c0-19.961,16.182-36.143,36.143-36.143s36.142,16.182,36.142,36.143C180.726,249,164.545,265.182,144.584,265.182z"/> <path style="fill:#27A2DB;" d="M180.726,229.039c0-19.961-16.182-36.143-36.142-36.143s-36.143,16.182-36.143,36.143 c0,19.96,16.182,36.143,36.143,36.143S180.726,249,180.726,229.039z M139.566,212.005c-1.659,4.977-7.039,10.357-12.016,12.016 c-4.977,1.659-7.667-1.031-6.008-6.009c1.659-4.977,7.039-10.357,12.016-12.016C138.535,204.338,141.225,207.028,139.566,212.005z M161.956,250.728c-2.385,0-4.318-1.933-4.318-4.318c0-2.384,1.933-4.318,4.318-4.318c2.384,0,4.318,1.934,4.318,4.318 C166.273,248.796,164.34,250.728,161.956,250.728z"/> <g> <circle style="fill:#FFFFFF;" cx="161.956" cy="246.426" r="4.316"/> <path style="fill:#FFFFFF;" d="M133.558,205.997c-4.977,1.659-10.357,7.039-12.016,12.016c-1.659,4.978,1.031,7.667,6.008,6.009 c4.977-1.659,10.357-7.039,12.016-12.016C141.225,207.028,138.535,204.338,133.558,205.997z"/> </g> <path style="fill:#64798A;" d="M264.892,188.495c-5.467-2.362-13.672-5.151-23.861-6.338c2.037,2.986,3.234,6.592,3.234,10.48 c0,7.543-4.504,14.004-10.952,16.933c3.205,0.85,6.854,2.102,10.504,3.907l15.233-19.673 C260.725,191.643,262.741,189.937,264.892,188.495z"/> <path style="fill:#2F4859;" d="M286.122,185.467c-7.159-2.287-14.968-1.169-21.229,3.028c-2.152,1.443-4.167,3.148-5.841,5.31 l-15.233,19.673l-1.247,1.61c-3.387,4.374-2.587,10.666,1.787,14.054l15.748,12.194c-1.036-3.933-1.643-8.039-1.643-12.296 C258.464,209.772,269.79,193.193,286.122,185.467z"/> <path style="fill:#3A556A;" d="M306.693,180.811c-7.369,0-14.324,1.701-20.571,4.657c-16.332,7.725-27.658,24.305-27.658,43.572 c0,4.257,0.606,8.363,1.643,12.296c5.444,20.669,24.208,35.933,46.586,35.933c26.636,0,48.229-21.593,48.229-48.229 S333.329,180.811,306.693,180.811z M306.693,265.182c-19.961,0-36.142-16.182-36.142-36.143c0-19.961,16.182-36.143,36.142-36.143 s36.142,16.182,36.142,36.143C342.835,249,326.654,265.182,306.693,265.182z"/> <path style="fill:#27A2DB;" d="M306.693,192.896c-19.961,0-36.142,16.182-36.142,36.143c0,19.96,16.182,36.143,36.142,36.143 s36.142-16.182,36.142-36.143C342.835,209.078,326.654,192.896,306.693,192.896z M289.321,250.728c-2.384,0-4.318-1.933-4.318-4.318 c0-2.384,1.933-4.318,4.318-4.318c2.385,0,4.318,1.934,4.318,4.318C293.639,248.796,291.706,250.728,289.321,250.728z M323.727,224.021c-4.977-1.659-10.357-7.039-12.016-12.016c-1.659-4.978,1.031-7.667,6.008-6.009 c4.977,1.659,10.357,7.039,12.016,12.016C331.394,222.991,328.704,225.68,323.727,224.021z"/> <g> <circle style="fill:#FFFFFF;" cx="289.331" cy="246.426" r="4.316"/> <path style="fill:#FFFFFF;" d="M317.719,205.997c-4.977-1.659-7.667,1.031-6.008,6.009c1.659,4.977,7.039,10.357,12.016,12.016 c4.978,1.659,7.667-1.031,6.009-6.009C328.076,213.036,322.696,207.655,317.719,205.997z"/> </g> <path style="fill:#3A556A;" d="M244.266,192.637c0-3.888-1.197-7.494-3.234-10.48c-3.353-4.916-8.993-8.148-15.393-8.148 s-12.04,3.232-15.393,8.148c-2.038,2.986-3.235,6.592-3.235,10.48c0,7.543,4.505,14.004,10.952,16.933 c2.346,1.065,4.931,1.694,7.676,1.694c2.745,0,5.33-0.629,7.676-1.694C239.762,206.641,244.266,200.18,244.266,192.637z M225.638,203.331c-5.907,0-10.695-4.787-10.695-10.694c0-5.908,4.788-10.695,10.695-10.695c5.906,0,10.694,4.787,10.694,10.695 C236.333,198.543,231.545,203.331,225.638,203.331z"/> <circle style="fill:#2F4859;" cx="225.638" cy="192.635" r="10.696"/> </g>

</svg>