<?xml version="1.0" encoding="iso-8859-1"?>
<!-- Generator: Adobe Illustrator 19.0.0, SVG Export Plug-In . SVG Version: 6.00 Build 0)  -->
<svg version="1.1" id="Layer_1" xmlns="http://www.w3.org/2000/svg" xmlns:xlink="http://www.w3.org/1999/xlink" x="0px" y="0px"
	 viewBox="0 0 297 297" style="enable-background:new 0 0 297 297;" xml:space="preserve">
<g>
	<g>
		<g>
			<g>
				<circle style="fill:#C0C0B8;" cx="148.5" cy="148.5" r="148.5"/>
			</g>
		</g>
	</g>
	<path style="fill:#898877;" d="M234.512,97.03L88.167,203.921l90.094,90.094c64.395-13.1,113.637-67.873,118.359-134.934
		L234.512,97.03z"/>
	<g>
		<path style="fill:#C63C22;" d="M247.5,130.453c0-27.338-22.162-49.5-49.5-49.5s-49.5,22.162-49.5,49.5
			c0-27.338-22.162-49.5-49.5-49.5s-49.5,22.162-49.5,49.5c0,66,99,117.047,99,117.047S247.5,196.109,247.5,130.453z"/>
	</g>
	<polygon style="fill:#ECF0F1;" points="268.249,162.877 232.289,162.877 232.289,126.916 199.289,126.916 199.289,162.877 
		163.329,162.877 163.329,195.877 199.289,195.877 199.289,231.837 232.289,231.837 232.289,195.877 268.249,195.877 	"/>
</g>
<g>
</g>
<g>
</g>
<g>
</g>
<g>
</g>
<g>
</g>
<g>
</g>
<g>
</g>
<g>
</g>
<g>
</g>
<g>
</g>
<g>
</g>
<g>
</g>
<g>
</g>
<g>
</g>
<g>
</g>
</svg>
