<svg xmlns="http://www.w3.org/2000/svg" version="1.1" xmlns:xlink="http://www.w3.org/1999/xlink" xmlns:svgjs="http://svgjs.dev/svgjs" width="1000" height="348" viewBox="0 0 1000 348"><g transform="matrix(1,0,0,1,-0.6060402683437474,0.21334421243403767)"><svg viewBox="0 0 396 138" data-background-color="#ffffff" preserveAspectRatio="xMidYMid meet" height="348" width="1000" xmlns="http://www.w3.org/2000/svg" xmlns:xlink="http://www.w3.org/1999/xlink"><g id="tight-bounds" transform="matrix(1,0,0,1,0.23999194626412645,-0.0846014788682794)"><svg viewBox="0 0 395.52 138.1692034941438" height="138.1692034941438" width="395.52"><g><svg viewBox="0 0 395.52 138.1692034941438" height="138.1692034941438" width="395.52"><g transform="matrix(1,0,0,1,0,85.39411083291327)"><svg viewBox="0 0 395.52 52.77509266123054" height="52.77509266123054" width="395.52"><g><svg viewBox="0 0 395.52 52.77509266123054" height="52.77509266123054" width="395.52"><g><svg viewBox="0 0 395.52 52.77509266123054" height="52.77509266123054" width="395.52"><g transform="matrix(1,0,0,1,0,0)"><svg width="395.52" viewBox="2 -35.25 269.7699890136719 36" height="52.77509266123054" data-palette-color="#fe0000"><path d="M29.05-34.55L31.25 0 25.2 0 24.6-14.6Q24.3-22.6 24.3-26L24.3-26 24.35-28.6 19.6-3.8 13.6-3.8 8.65-28.65Q8.7-27.15 8.7-24.05L8.7-24.05Q8.7-18.8 8.5-14.4L8.5-14.4 7.95 0 2 0 4.2-34.55 12.2-34.55 16.7-10.2 20.9-34.55 29.05-34.55ZM36.2-34.55L53.35-34.55 52.7-29.8 42.55-29.8 42.55-19.9 51.4-19.9 51.4-15.2 42.55-15.2 42.55-4.8 53.35-4.8 53.35 0 36.2 0 36.2-34.55ZM65.55-34.55Q69.9-34.55 73.07-33.23 76.25-31.9 78.22-28.13 80.2-24.35 80.2-17.45L80.2-17.45Q80.2-7.7 76.32-3.85 72.45 0 66.2 0L66.2 0 57.85 0 57.85-34.55 65.55-34.55ZM66.5-29.8L64.2-29.8 64.2-4.75 66.55-4.75Q68.8-4.75 70.32-5.8 71.85-6.85 72.72-9.65 73.6-12.45 73.6-17.45L73.6-17.45Q73.6-22.55 72.67-25.25 71.75-27.95 70.22-28.88 68.7-29.8 66.5-29.8L66.5-29.8ZM84.94-34.55L91.29-34.55 91.29 0 84.94 0 84.94-34.55ZM119.24 0L112.79 0 111.09-8.1 102.19-8.1 100.54 0 94.19 0 102.89-34.55 110.59-34.55 119.24 0ZM106.64-29.7L103.19-12.9 110.14-12.9 106.64-29.7ZM140.74-35.25Q143.74-35.25 146.04-34.2 148.34-33.15 150.29-31.05L150.29-31.05 147.34-27.65Q145.79-29.05 144.31-29.75 142.84-30.45 141.19-30.45L141.19-30.45Q139.29-30.45 138.19-29.28 137.09-28.1 137.09-26.2L137.09-26.2Q137.09-24.3 138.24-23.1 139.39-21.9 142.74-20.6L142.74-20.6Q147.04-18.85 149.06-16.5 151.09-14.15 151.09-9.85L151.09-9.85Q151.09-6.9 149.74-4.48 148.39-2.05 145.86-0.65 143.34 0.75 139.99 0.75L139.99 0.75Q136.54 0.75 133.99-0.48 131.44-1.7 129.34-3.95L129.34-3.95 132.54-7.45Q134.34-5.85 135.99-5 137.64-4.15 139.59-4.15L139.59-4.15Q141.89-4.15 143.16-5.58 144.44-7 144.44-9.45L144.44-9.45Q144.44-11.6 143.31-12.98 142.19-14.35 139.14-15.5L139.14-15.5Q134.54-17.35 132.51-19.75 130.49-22.15 130.49-25.75L130.49-25.75Q130.49-28.5 131.81-30.65 133.14-32.8 135.49-34.02 137.84-35.25 140.74-35.25L140.74-35.25ZM176.58-34.55L176.58-9.7Q176.58-5.15 173.76-2.23 170.93 0.7 165.68 0.7L165.68 0.7Q160.33 0.7 157.53-2.18 154.73-5.05 154.73-9.7L154.73-9.7 154.73-34.55 161.08-34.55 161.08-10Q161.08-7.1 162.18-5.68 163.28-4.25 165.68-4.25L165.68-4.25Q168.03-4.25 169.13-5.68 170.23-7.1 170.23-10L170.23-10 170.23-34.55 176.58-34.55ZM204.43 0L197.58 0 191.48-13.95 190.88-13.95 188.43-13.95 188.43 0 182.08 0 182.08-34.55 190.23-34.55Q202.73-34.55 202.73-24.4L202.73-24.4Q202.73-21.25 201.33-18.82 199.93-16.4 197.13-15.15L197.13-15.15 204.43 0ZM190.53-18.55Q193.48-18.55 194.81-19.95 196.13-21.35 196.13-24.4L196.13-24.4Q196.13-27.25 194.76-28.58 193.38-29.9 190.23-29.9L190.23-29.9 188.43-29.9 188.43-18.55 190.53-18.55ZM213.98 0L207.63 0 207.63-34.55 224.33-34.55 223.63-29.8 213.98-29.8 213.98-19.25 222.38-19.25 222.38-14.5 213.98-14.5 213.98 0ZM227.78-34.55L244.93-34.55 244.28-29.8 234.13-29.8 234.13-19.9 242.98-19.9 242.98-15.2 234.13-15.2 234.13-4.8 244.93-4.8 244.93 0 227.78 0 227.78-34.55ZM271.77 0L264.92 0 258.82-13.95 258.22-13.95 255.77-13.95 255.77 0 249.42 0 249.42-34.55 257.57-34.55Q270.07-34.55 270.07-24.4L270.07-24.4Q270.07-21.25 268.67-18.82 267.27-16.4 264.47-15.15L264.47-15.15 271.77 0ZM257.87-18.55Q260.82-18.55 262.15-19.95 263.47-21.35 263.47-24.4L263.47-24.4Q263.47-27.25 262.1-28.58 260.72-29.9 257.57-29.9L257.57-29.9 255.77-29.9 255.77-18.55 257.87-18.55Z" opacity="1" transform="matrix(1,0,0,1,0,0)" fill="#fe0000" class="undefined-text-0" data-fill-palette-color="primary" id="text-0"></path></svg></g></svg></g></svg></g></svg></g><g transform="matrix(1,0,0,1,157.24740500883655,0)"><svg viewBox="0 0 81.02518998232685 72.93517805782061" height="72.93517805782061" width="81.02518998232685"><g><svg xmlns="http://www.w3.org/2000/svg" xmlns:xlink="http://www.w3.org/1999/xlink" version="1.1" x="8" y="0" viewBox="83.79995727539062 22.44968032836914 404.86968994140625 454.12005615234375" style="enable-background:new 0 0 566.9 566.9;" xml:space="preserve" height="72.93517805782061" width="65.02518998232685" class="icon-icon-0" data-fill-palette-color="accent" id="icon-0"><g fill="#fe0000" data-fill-palette-color="accent"><path class="" d="M487.2 79c-5.2-6.7-20-9.6-22.1-6.1-2.1 3.5-6.5 1.7-6.5 1.7-7.5-7.5-15.7-5.7-15.7-5.7-26.5-13.8-40.3-3.6-40.3-3.6s-21.4-0.8-24.4 3.3-7.8 3.8-7.8 3.8c-19.4-7.5-31.5-1.6-31.5-1.6s-3.8 4-7.8 2.2c-4-1.9-1.3-7.8-1.3-7.8 6.7-9.4 0-16.4 0-16.4-1.1-12.9-5.1-17.2-5.1-17.2s-8.1-11.8-27.2-8.6C278.5 26.1 279 44.1 279 44.1s3 7 1.6 14.8c-1.3 7.8 0 7.8 1.1 12.4 1.1 4.6 3.5 6.2 3.5 6.2V82c0 0-0.5 2.2-18.6 7.5-18 5.4-32.5 27.2-32.5 27.2s-15.9 22.3-31.7 40.9c-15.9 18.6-6.7 31.6-6.7 31.6-7.9 5.8-2.5 32.2-2.5 32.2s7.1 49.7 3.5 53.1c-3.6 3.3-3.7 7.9-4.6 18.4-0.8 10.5 3.1 8.2 3.1 8.2 0.8 2 2.5 1.9 2.5 1.9 1.4 2.9 5.4 2.7 5.4 2.7 4.2 2.9 3.7-0.2 3.7-0.2 1.5 6.6 10.7 14.9 6.8 0.8-3.9-14.1 1-17.7 1-17.7-2.2 11.4 5.6 16.8 4.9 10.4-0.8-6.4 1-10.9 1-10.9 8.8-15.4-0.8 2.3-5.7-26.6-4.8-29 1.6-34.6 1.6-34.6 21.3 23.3 30.9 22.4 30.9 22.4l3.4-3.1c14.1 1.3 8.3 8.2 8.3 8.2-35.8 28.8-24.9 84.1-37.1 89.1-12.2 5-8.9 13.9-8.9 13.9l1.6 6.2C187.4 381.1 83.8 476.4 83.8 476.4c41.7 1.6 112.5-6.6 213.1-90.7 100.6-84.1 149.3-167.4 112.2-155.1C372 243 306.1 301 306.1 301s4.9-10.4 27.4-29.2c22.5-18.8 14.1-29.8 14.1-29.8 0.1-0.3-5.9-8.8-5.9-8.8-11.5-23.3-36.7-45.9-50.4-54.7-13.8-8.8-7.5-13.1-7.5-13.1 8.8-9.5 14.7-13.8 14.7-13.8 15.4-3.6 32.4-30.5 32.4-30.5 10.5-7.2 21.9-25.6 21.9-25.6 14.1 0.3 12.4-0.7 27.2-2.6 14.7-2 27.8-9 27.8-9 7.4 1.8 32.4-0.3 32.4-0.3 7.4 4.8 8.6 7 8.6 7 10.9 17.9 12.9 8.9 12.3 7.5-0.5-1.4-3.4-11.1-0.1-8.2 3.3 2.9 12.9 10 15 7.8 2.2-2.2-0.4-3.7-0.4-3.7s-16.5-9.3-9.6-10c7-0.7 16.4 7.5 17.1 4.1 0.7-3.4-10.3-8.2-10.3-8.2C482.9 80.2 492.4 85.7 487.2 79zM289.3 232.4c0 0 11.2 15.8 17 19.5 0 0-10.4 10-11.2 29.5 0 0-2.1 7.1-7.1 6-5-1-6.9 11.8-1.8 24.7 0 0-28.1 18.3-43.8 30.3 0 0 7.1-31.5 39.4-74.3C281.8 268.1 298.8 252.8 289.3 232.4z" fill="#fe0000" stroke="#fe0000" stroke-miterlimit="10" data-fill-palette-color="accent"></path></g></svg></g></svg></g><g><rect width="157.24740500883655" height="4.759312320085397" y="67.17586573773521" x="238.2725949911634" fill="#fe0000" data-fill-palette-color="accent"></rect><rect width="157.24740500883655" height="4.759312320085397" y="67.17586573773521" x="0" fill="#fe0000" data-fill-palette-color="accent"></rect><rect width="157.24740500883655" height="4.759312320085397" y="57.657241097564416" x="238.2725949911634" fill="#fe0000" data-fill-palette-color="accent"></rect><rect width="157.24740500883655" height="4.759312320085397" y="57.657241097564416" x="0" fill="#fe0000" data-fill-palette-color="accent"></rect></g></svg></g><defs></defs></svg><rect width="395.52" height="138.1692034941438" fill="none" stroke="none" visibility="hidden"></rect></g></svg></g></svg>