<?xml version="1.0" encoding="iso-8859-1"?>
<!-- Generator: Adobe Illustrator 19.0.0, SVG Export Plug-In . SVG Version: 6.00 Build 0)  -->
<svg version="1.1" id="Layer_1" xmlns="http://www.w3.org/2000/svg" xmlns:xlink="http://www.w3.org/1999/xlink" x="0px" y="0px"
	 viewBox="0 0 512 512" style="enable-background:new 0 0 512 512;" xml:space="preserve">
<path style="fill:#FFDC64;" d="M324.741,171.457c0,0-30.815-2.37-49.778,31.605c0,0-18.963-28.602-18.963-89.284
	c-66.37,56.889-97.09,165.429-97.09,206.317c0,36.412,20.084,68.063,49.751,84.659c3.693,2.066,7.662-1.746,5.791-5.542
	c-3.733-7.572-5.858-16.274-5.858-25.53c0-52.986,47.407-127.164,47.407-127.164s47.407,74.178,47.407,127.163
	c0,8.863-1.959,17.204-5.41,24.536c-1.764,3.746,2.273,7.419,5.856,5.346c15.657-9.058,28.574-21.786,36.6-35.538
	c10.126-17.35,12.636-35.778,12.636-47.93C353.09,259.413,312.889,246.519,324.741,171.457z"/>
<path style="fill:#FFB446;" d="M324.741,171.457c0,0-30.815-2.37-49.778,31.605c0,0-18.963-28.602-18.963-89.284
	c-66.37,56.889-97.09,165.429-97.09,206.317c0,5.759,0.668,11.34,1.632,16.82c-8.047-77.755,81.236-152.818,81.236-152.818
	l32.791,71.111c0,0,9.481-16.593,24.889-28.05c0,0,69.531,92.05,33.188,151.949c2.923-3.59,5.589-7.282,7.809-11.085
	c10.126-17.35,12.636-35.778,12.636-47.93C353.09,259.413,312.889,246.519,324.741,171.457z"/>
<path style="fill:#FF5050;" d="M256,0C114.842,0,0,114.842,0,256s114.842,256,256,256s256-114.842,256-256S397.158,0,256,0z
	 M37.926,256c0-53.311,19.257-102.19,51.142-140.117l307.048,307.048c-37.925,31.886-86.804,51.143-140.116,51.143
	C135.75,474.074,37.926,376.245,37.926,256z M422.932,396.117L115.883,89.068C153.809,57.183,202.688,37.926,256,37.926
	c120.25,0,218.074,97.829,218.074,218.074C474.074,309.311,454.817,358.19,422.932,396.117z"/>
<path style="fill:#C84146;" d="M199.666,466.657C106.641,441.755,37.926,356.768,37.926,256c0-53.311,19.257-102.19,51.142-140.117
	l58.913,58.913c5.659-11.889,12.198-23.279,19.552-34.078l-51.65-51.65C153.809,57.183,202.688,37.926,256,37.926
	c14.176,0,28.025,1.406,41.454,4.001c23.924-8.092,49.412-12.728,75.89-13.333C338.164,10.367,298.281,0,256,0
	C114.842,0,0,114.842,0,256s114.842,256,256,256c1.984,0,3.942-0.104,5.915-0.149C238.924,499.937,217.945,484.674,199.666,466.657z
	"/>
<g>
</g>
<g>
</g>
<g>
</g>
<g>
</g>
<g>
</g>
<g>
</g>
<g>
</g>
<g>
</g>
<g>
</g>
<g>
</g>
<g>
</g>
<g>
</g>
<g>
</g>
<g>
</g>
<g>
</g>
</svg>
