<?xml version="1.0" encoding="iso-8859-1"?>
<!-- Uploaded to: SVG Repo, www.svgrepo.com, Transformed by: SVG Repo Mixer Tools -->
<svg height="800px" width="800px" version="1.1" id="Layer_1" xmlns="http://www.w3.org/2000/svg" xmlns:xlink="http://www.w3.org/1999/xlink" 
	 viewBox="0 0 451.277 451.277" xml:space="preserve">
<circle style="fill:#EFC84A;" cx="225.638" cy="225.638" r="225.638"/>
<path style="opacity:0.1;enable-background:new    ;" d="M447.661,265.799L335.198,153.366l-1.222-1.269
	c-38.315-38.315-178.364-38.315-216.678,0c-12.928,12.881-20.168,43.157-20.873,73.527c-0.752,32.203,5.829,64.594,20.873,76.771
	l145.757,145.757C356.771,432.504,430.886,359.129,447.661,265.799z"/>
<path style="fill:#D15241;" d="M96.433,225.638c-0.754,32.207,5.822,64.594,20.855,76.742c42.137,34.049,174.562,34.049,216.699,0
	c15.033-12.148,21.61-44.535,20.856-76.742H96.433z"/>
<path style="fill:#E56353;" d="M333.987,152.09c-38.307-38.307-178.391-38.307-216.699,0
	c-12.901,12.901-20.144,43.144-20.855,73.548h258.41C354.132,195.234,346.889,164.991,333.987,152.09z"/>
<path style="fill:#FFFFFF;" d="M265.208,218.475l-68.614-50.407c-5.87-4.313-14.151-0.122-14.151,7.163v50.407h86.391
	C268.834,222.944,267.625,220.251,265.208,218.475z"/>
<path style="fill:#EBF0F3;" d="M196.594,283.209l68.614-50.408c2.417-1.776,3.626-4.469,3.626-7.163h-86.391v50.409
	C182.443,283.33,190.724,287.522,196.594,283.209z"/>
</svg>