<?xml version="1.0" encoding="iso-8859-1"?>
<!-- Generator: Adobe Illustrator 19.0.0, SVG Export Plug-In . SVG Version: 6.00 Build 0)  -->
<svg version="1.1" id="Layer_1" xmlns="http://www.w3.org/2000/svg" xmlns:xlink="http://www.w3.org/1999/xlink" x="0px" y="0px"
	 viewBox="0 0 511.999 511.999" style="enable-background:new 0 0 511.999 511.999;" xml:space="preserve">
<path style="fill:#F53000;" d="M236.824,22.059c4.129-6.617,11.376-10.636,19.175-10.636c7.799,0,15.046,4.02,19.175,10.636
	l77.54,124.256l142.136,35.348c7.568,1.882,13.632,7.533,16.042,14.95c2.41,7.417,0.826,15.552-4.191,21.524l-94.214,112.142
	l10.305,146.102c0.548,7.779-2.952,15.292-9.261,19.876c-6.309,4.584-14.536,5.591-21.765,2.665L256,443.974l-135.767,54.948
	c-7.229,2.926-15.456,1.918-21.765-2.665c-6.309-4.584-9.81-12.096-9.261-19.876l10.305-146.102L5.297,218.138
	c-5.017-5.971-6.6-14.107-4.191-21.524c2.41-7.417,8.473-13.068,16.042-14.95l142.136-35.348L236.824,22.059z"/>
<path style="fill:#BF2717;" d="M510.893,196.613c-2.41-7.417-8.473-13.068-16.042-14.95l-142.136-35.348L275.175,22.06
	c-4.129-6.617-11.376-10.636-19.175-10.636v432.554l135.767,54.948c7.229,2.926,15.456,1.919,21.765-2.665
	c6.309-4.584,9.81-12.096,9.261-19.876l-10.305-146.102l94.214-112.142C511.719,212.167,513.302,204.031,510.893,196.613z"/>
<g>
</g>
<g>
</g>
<g>
</g>
<g>
</g>
<g>
</g>
<g>
</g>
<g>
</g>
<g>
</g>
<g>
</g>
<g>
</g>
<g>
</g>
<g>
</g>
<g>
</g>
<g>
</g>
<g>
</g>
</svg>
