<?xml version="1.0" encoding="utf-8"?>

<!-- Uploaded to: SVG Repo, www.svgrepo.com, Transformed by: SVG Repo Mixer Tools -->
<svg version="1.1" id="Icons" xmlns="http://www.w3.org/2000/svg" xmlns:xlink="http://www.w3.org/1999/xlink" 
	 viewBox="0 0 32 32" xml:space="preserve">
<style type="text/css">
	.st0{fill:none;stroke:#ffffff;stroke-width:2;stroke-linecap:round;stroke-linejoin:round;stroke-miterlimit:10;}
</style>
<path fill="white" d="M15.7,21.9c-0.1-0.5-0.7-0.8-1.2-0.7c-0.7,0.2-1.2,0-1.3-0.2c-0.1-0.2,0-0.7,0.5-1.3c0.4-0.4,0.4-1,0-1.4
	c-1-1-2.2-1.7-3.6-2.1C9.6,16.1,9,16.4,8.9,17c-0.2,0.7-0.6,1-0.9,1s-0.6-0.4-0.9-1c-0.2-0.5-0.7-0.8-1.2-0.7
	c-1.4,0.4-2.6,1.1-3.6,2.1c-0.4,0.4-0.4,1,0,1.4c0.5,0.5,0.6,1,0.5,1.3c-0.1,0.2-0.6,0.4-1.3,0.2c-0.5-0.1-1.1,0.2-1.2,0.7
	C0.1,22.6,0,23.3,0,24s0.1,1.4,0.3,2.1c0.1,0.5,0.7,0.8,1.2,0.7c0.7-0.2,1.2,0,1.3,0.2c0.1,0.2,0,0.7-0.5,1.3c-0.4,0.4-0.4,1,0,1.4
	c1,1,2.2,1.7,3.6,2.1C6.4,31.9,7,31.6,7.1,31c0.2-0.7,0.6-1,0.9-1s0.6,0.4,0.9,1c0.1,0.4,0.5,0.7,1,0.7c0.1,0,0.2,0,0.3,0
	c1.4-0.4,2.6-1.1,3.6-2.1c0.4-0.4,0.4-1,0-1.4c-0.5-0.5-0.6-1-0.5-1.3c0.1-0.2,0.6-0.4,1.3-0.2c0.5,0.1,1.1-0.2,1.2-0.7
	c0.2-0.7,0.3-1.4,0.3-2.1S15.9,22.6,15.7,21.9z M8,27c-1.7,0-3-1.3-3-3s1.3-3,3-3s3,1.3,3,3S9.7,27,8,27z"/>
<path fill="white" d="M29,8h-8.9l-2.3-3.5C17.7,4.2,17.3,4,17,4H7C5.3,4,4,5.3,4,7v7.8C5.2,14.3,6.6,14,8,14c5.5,0,10,4.5,10,10
	c0,1.4-0.3,2.8-0.8,4H29c1.7,0,3-1.3,3-3V11C32,9.3,30.7,8,29,8z M30,23.6L21.4,10H29c0.6,0,1,0.4,1,1V23.6z"/>
</svg>